<?xml version="1.0" standalone="no"?>
<!DOCTYPE svg PUBLIC "-//W3C//DTD SVG 20010904//EN"
 "http://www.w3.org/TR/2001/REC-SVG-20010904/DTD/svg10.dtd">
<svg version="1.0" xmlns="http://www.w3.org/2000/svg"
 width="50.000000pt" height="50.000000pt" viewBox="0 0 50.000000 50.000000"
 preserveAspectRatio="xMidYMid meet">

<g transform="translate(0.000000,50.000000) scale(0.100000,-0.100000)"
fill="#000000" stroke="none">
<path d="M280 412 l0 -48 -58 -12 c-106 -22 -175 -86 -206 -191 -17 -58 -21
-101 -8 -101 4 0 17 23 30 50 26 57 72 93 148 116 83 25 93 22 96 -36 l3 -51
100 77 c55 42 100 80 100 84 0 8 -192 160 -201 160 -2 0 -4 -22 -4 -48z"/>
</g>
</svg>
